/* XPM */
static char *_13068f788b7483abecb3a4a6f68442aFuzsKVYiHkqPr010[] = {
/* columns rows colors chars-per-pixel */
"64 64 14 1 ",
"  c #261B1B",
". c #2E2D2D",
"X c #54312D",
"o c #543E3B",
"O c gray32",
"+ c #822E24",
"@ c #BA4234",
"# c #814C46",
"$ c #987673",
"% c #DE7C70",
"& c #858484",
"* c #B78E8A",
"= c #A0A0A0",
"- c #FEFFFF",
/* pixels */
"                                ++++++++++++++++++++++++++++++++",
" oooooooooooooooooooooooooooooo +oooooooooooooooooooooooooooooo+",
" o############################o +o############################o+",
" o#@@@@@@@@@@@@@@@@@@@@@@@@@@#o +o#@@@@@@@@@@@@@@@@@@@@@@@@@@#o+",
" $############$o@$############$ +$############$o@$############$+",
" X$##########$#o@X$##########$# +X$##########$#o@X$##########$#+",
" X#$$$$$$$$$$%#o@X#$$$$$$$$$$%# +X#$$$$$$$$$$%#o@X#$$$$$$$$$$%#+",
" X#$$$*oo*$$$%#o@X#$$$*oo*$$$%# +X#$$$*oo*$$$%#o@X#$$$*oo*$$$%#+",
" X#$$*o..o*$$%#o@X#$$*o..o*$$%# +X#$$*o..o*$$%#o@X#$$*o..o*$$%#+",
" X#$*o.--&o*$%#o@X#$*o.--&o*$%# +X#$*o.--&o*$%#o@X#$*o.--&o*$%#+",
" X#$*o.O=&o*$%#o@X#$*o.O=&o*$%# +X#$*o.O=&o*$%#o@X#$*o.O=&o*$%#+",
" X#$**o..o**$%#o@X#$**o..o**$%# +X#$**o..o**$%#o@X#$**o..o**$%#+",
" X#$$**oo**$$%#o@X#$$**oo**$$%# +X#$$**oo**$$%#o@X#$$**oo**$$%#+",
" X#$$$****$$$%#o@X#$$$****$$$%# +X#$$$****$$$%#o@X#$$$****$$$%#+",
" X$%%%%%%%%%%$#o@X$%%%%%%%%%%$# +X$%%%%%%%%%%$#o@X$%%%%%%%%%%$#+",
" $############$o@$############$ +$############$o@$############$+",
" ooooooooooooooo@oooooooooooooo +ooooooooooooooo@oooooooooooooo+",
" ooooooooooooooo@oooooooooooooo +ooooooooooooooo@oooooooooooooo+",
" $############$o@$############$ +$############$o@$############$+",
" X$##########$#o@X$##########$# +X$##########$#o@X$##########$#+",
" X#$$$$$$$$$$%#o@X#$$$$$$$$$$%# +X#$$$$$$$$$$%#o@X#$$$$$$$$$$%#+",
" X#$$$*oo*$$$%#o@X#$$$*oo*$$$%# +X#$$$*oo*$$$%#o@X#$$$*oo*$$$%#+",
" X#$$*o..o*$$%#o@X#$$*o..o*$$%# +X#$$*o..o*$$%#o@X#$$*o..o*$$%#+",
" X#$*o.--&o*$%#o@X#$*o.--&o*$%# +X#$*o.--&o*$%#o@X#$*o.--&o*$%#+",
" X#$*o.O=&o*$%#o@X#$*o.O=&o*$%# +X#$*o.O=&o*$%#o@X#$*o.O=&o*$%#+",
" X#$**o..o**$%#o@X#$**o..o**$%# +X#$**o..o**$%#o@X#$**o..o**$%#+",
" X#$$**oo**$$%#o@X#$$**oo**$$%# +X#$$**oo**$$%#o@X#$$**oo**$$%#+",
" X#$$$****$$$%#o@X#$$$****$$$%# +X#$$$****$$$%#o@X#$$$****$$$%#+",
" X$%%%%%%%%%%$#o@X$%%%%%%%%%%$# +X$%%%%%%%%%%$#o@X$%%%%%%%%%%$#+",
" $############$o@$############$ +$############$o@$############$+",
"               o@o            o +              o@o            o+",
"               o@o            o +              o@o            o+",
" $############$o@$############$ +$############$o@$############$+",
" X$##########$#o@X$##########$# +X$##########$#o@X$##########$#+",
" X#$$$$$$$$$$%#o@X#$$$$$$$$$$%# +X#$$$$$$$$$$%#o@X#$$$$$$$$$$%#+",
" X#$$$*oo*$$$%#o@X#$$$*oo*$$$%# +X#$$$*oo*$$$%#o@X#$$$*oo*$$$%#+",
" X#$$*o..o*$$%#o@X#$$*o..o*$$%# +X#$$*o..o*$$%#o@X#$$*o..o*$$%#+",
" X#$*o.--&o*$%#o@X#$*o.--&o*$%# +X#$*o.--&o*$%#o@X#$*o.--&o*$%#+",
" X#$*o.O=&o*$%#o@X#$*o.O=&o*$%# +X#$*o.O=&o*$%#o@X#$*o.O=&o*$%#+",
" X#$**o..o**$%#o@X#$**o..o**$%# +X#$**o..o**$%#o@X#$**o..o**$%#+",
" X#$$**oo**$$%#o@X#$$**oo**$$%# +X#$$**oo**$$%#o@X#$$**oo**$$%#+",
" X#$$$****$$$%#o@X#$$$****$$$%# +X#$$$****$$$%#o@X#$$$****$$$%#+",
" X$%%%%%%%%%%$#o@X$%%%%%%%%%%$# +X$%%%%%%%%%%$#o@X$%%%%%%%%%%$#+",
" $############$o@$############$ +$############$o@$############$+",
" ooooooooooooooo@oooooooooooooo +ooooooooooooooo@oooooooooooooo+",
" ooooooooooooooo@oooooooooooooo +ooooooooooooooo@oooooooooooooo+",
" $############$o@$############$ +$############$o@$############$+",
" X$##########$#o@X$##########$# +X$##########$#o@X$##########$#+",
" X#$$$$$$$$$$%#o@X#$$$$$$$$$$%# +X#$$$$$$$$$$%#o@X#$$$$$$$$$$%#+",
" X#$$$*oo*$$$%#o@X#$$$*oo*$$$%# +X#$$$*oo*$$$%#o@X#$$$*oo*$$$%#+",
" X#$$*o..o*$$%#o@X#$$*o..o*$$%# +X#$$*o..o*$$%#o@X#$$*o..o*$$%#+",
" X#$*o.--&o*$%#o@X#$*o.--&o*$%# +X#$*o.--&o*$%#o@X#$*o.--&o*$%#+",
" X#$*o.O=&o*$%#o@X#$*o.O=&o*$%# +X#$*o.O=&o*$%#o@X#$*o.O=&o*$%#+",
" X#$**o..o**$%#o@X#$**o..o**$%# +X#$**o..o**$%#o@X#$**o..o**$%#+",
" X#$$**oo**$$%#o@X#$$**oo**$$%# +X#$$**oo**$$%#o@X#$$**oo**$$%#+",
" X#$$$****$$$%#o@X#$$$****$$$%# +X#$$$****$$$%#o@X#$$$****$$$%#+",
" X$%%%%%%%%%%$#o@X$%%%%%%%%%%$# +X$%%%%%%%%%%$#o@X$%%%%%%%%%%$#+",
" $############$o@$############$ +$############$o@$############$+",
" ooooooooooooooo@oooooooooooooo +ooooooooooooooo@oooooooooooooo+",
" ooooooooooooooo@oooooooooooooo +ooooooooooooooo@oooooooooooooo+",
" o#@@@@@@@@@@@@@@@@@@@@@@@@@@#o +o#@@@@@@@@@@@@@@@@@@@@@@@@@@#o+",
" o############################o +o############################o+",
" oooooooooooooooooooooooooooooo +oooooooooooooooooooooooooooooo+",
"                                ++++++++++++++++++++++++++++++++"
};
