/* XPM */
static char *_53f31ac44e34373de1b7fbaad298e8bpX46SgqBpU4xVNxf[] = {
/* columns rows colors chars-per-pixel */
"65 64 2 1 ",
"  c None",
". c #261B1B",
/* pixels */
"...........                                            ..........",
"...........                                            ..........",
"...........                                            ..........",
"...........                                            ..........",
"...........                                            ..........",
"...........                                            ..........",
"...........                                            ..........",
"...........                                            ..........",
"...........                                            ..........",
"...........                                            ..........",
"...........                                            ..........",
"...........                                            ..........",
"...........                                            ..........",
"...........                                            ..........",
"...........                                            ..........",
"...........                                            ..........",
"...........                                            ..........",
"...........                                            ..........",
"...........                                            ..........",
"...........                                            ..........",
"...........                                            ..........",
"...........                                            ..........",
"...........                                            ..........",
"...........                                            ..........",
"...........                                            ..........",
"...........                                            ..........",
"...........                                            ..........",
"...........                                            ..........",
"...........                                            ..........",
"...........                                            ..........",
"...........                                            ..........",
"...........                                            ..........",
"...........                                            ..........",
"...........                                            ..........",
"...........                                            ..........",
"...........                                            ..........",
"...........                                            ..........",
"...........                                            ..........",
"...........                                            ..........",
"...........                                            ..........",
"...........                                            ..........",
"...........                                            ..........",
"...........                                            ..........",
"...........                                            ..........",
"...........                                            ..........",
"...........                                            ..........",
"...........                                            ..........",
"...........                                            ..........",
"...........                                            ..........",
"...........                                            ..........",
"...........                                            ..........",
"...........                                            ..........",
"...........                                            ..........",
"...........                                            ..........",
"...........                                            ..........",
"...........                                            ..........",
"...........                                            ..........",
"...........                                            ..........",
"...........                                            ..........",
"...........                                            ..........",
"...........                                            ..........",
"...........                                            ..........",
"...........                                            ..........",
"...........                                            .........."
};
